<svg width="210" height="267" viewBox="0 0 210 267" fill="none" xmlns="http://www.w3.org/2000/svg">
<path d="M127.392 0L120.826 37.5611H83.9214L50.169 228.124H87.3361L80.7695 265.686H0L46.7543 0H127.392Z" fill="#CCF381"/>
<path d="M178.349 169.025C177.561 173.228 177.035 180.714 176.641 191.483C176.379 204.879 175.591 214.597 174.54 220.77C172.045 235.216 165.61 246.511 155.234 254.522C144.859 262.534 132.251 266.605 117.017 266.605H99.5493L106.116 229.044H114.915C124.371 229.044 129.756 224.71 131.2 216.042C131.857 212.233 132.514 204.879 133.039 194.109C133.17 192.271 133.433 188.331 133.827 182.29C134.221 176.248 134.746 171.258 135.666 167.186C137.242 158.256 140.656 150.77 145.778 144.991C150.9 139.212 157.992 135.404 166.792 133.828V133.303C153.396 130.676 146.698 122.402 146.698 108.481C146.698 105.854 146.96 102.965 147.354 99.9441C148.405 93.5088 150.769 84.3155 154.446 72.233C156.022 66.9797 157.467 62.1204 158.518 57.5237C159.568 52.9271 160.225 49.5124 160.225 47.4111C160.225 44.2591 159.306 41.8952 157.336 40.3192C155.497 38.7432 152.345 37.9552 148.142 37.9552H139.606L146.435 0.52544H163.902C177.167 0.52544 187.542 3.67742 195.159 9.85004C202.777 16.0227 206.454 24.9533 206.454 36.3792C206.454 38.2178 206.191 41.6325 205.535 46.3605C204.484 52.4018 201.726 61.8577 197.523 74.9909C193.846 85.8915 191.745 93.6401 190.957 98.3681C190.694 100.207 190.431 101.52 190.431 102.177C190.431 106.248 192.007 109.4 195.159 111.37C198.311 113.471 203.302 114.522 210 114.653L203.433 152.214C188.461 152.74 180.056 158.256 178.349 169.025V169.025Z" fill="#CCF381"/>
</svg>
