<svg width="477" height="477" viewBox="0 0 477 477" fill="none" xmlns="http://www.w3.org/2000/svg">
<path fill-rule="evenodd" clip-rule="evenodd" d="M316.177 224.393C323.941 232.195 323.941 244.805 316.177 252.607L215.177 354.107C207.386 361.937 194.723 361.968 186.893 354.177C179.063 346.386 179.032 333.723 186.823 325.893L273.785 238.5L186.823 151.107C179.032 143.277 179.063 130.614 186.893 122.823C194.723 115.032 207.386 115.063 215.177 122.893L316.177 224.393Z" fill="#CCF381"/>
<path fill-rule="evenodd" clip-rule="evenodd" d="M238.5 437C348.129 437 437 348.129 437 238.5C437 128.871 348.129 40 238.5 40C128.871 40 40 128.871 40 238.5C40 348.129 128.871 437 238.5 437ZM238.5 477C370.22 477 477 370.22 477 238.5C477 106.78 370.22 0 238.5 0C106.78 0 0 106.78 0 238.5C0 370.22 106.78 477 238.5 477Z" fill="#CCF381"/>
</svg>
