<svg width="477" height="477" viewBox="0 0 477 477" fill="none" xmlns="http://www.w3.org/2000/svg">
<path fill-rule="evenodd" clip-rule="evenodd" d="M160.823 252.607C153.059 244.805 153.059 232.195 160.823 224.393L261.823 122.893C269.614 115.063 282.277 115.032 290.107 122.823C297.937 130.614 297.968 143.277 290.177 151.107L203.215 238.5L290.177 325.893C297.968 333.723 297.937 346.386 290.107 354.177C282.277 361.968 269.614 361.937 261.823 354.107L160.823 252.607Z" fill="#CCF381"/>
<path fill-rule="evenodd" clip-rule="evenodd" d="M238.5 40C128.871 40 40 128.872 40 238.5C40 348.129 128.871 437 238.5 437C348.129 437 437 348.129 437 238.5C437 128.871 348.128 40 238.5 40ZM238.5 2.08503e-05C106.78 3.23657e-05 -3.23657e-05 106.78 -2.08503e-05 238.5C-9.33501e-06 370.22 106.78 477 238.5 477C370.22 477 477 370.22 477 238.5C477 106.78 370.22 9.33501e-06 238.5 2.08503e-05Z" fill="#CCF381"/>
</svg>
